<?xml version="1.0" standalone="no"?>
<!DOCTYPE svg PUBLIC "-//W3C//DTD SVG 20010904//EN"
 "http://www.w3.org/TR/2001/REC-SVG-20010904/DTD/svg10.dtd">
<svg version="1.0" xmlns="http://www.w3.org/2000/svg"
 width="95.000000pt" height="95.000000pt" viewBox="0 0 95.000000 95.000000"
 preserveAspectRatio="xMidYMid meet">
<metadata>
Created by potrace 1.11, written by Peter Selinger 2001-2013
</metadata>
<g transform="translate(0.000000,95.000000) scale(0.100000,-0.100000)"
fill="#000000" stroke="none">
<path d="M402 738 c-33 -29 -61 -59 -61 -65 -1 -17 31 -17 47 -1 13 13 12 -16
-4 -147 l-4 -40 -111 -1 c-136 -1 -145 -7 -161 -112 -11 -66 -10 -73 8 -93 33
-36 70 -49 143 -49 38 0 77 3 86 6 22 9 42 51 50 109 12 81 20 95 55 95 29 0
30 -2 30 -45 0 -45 26 -111 52 -132 22 -18 149 -35 185 -24 37 11 113 70 113
89 0 22 -33 13 -65 -18 -41 -40 -77 -49 -150 -36 -55 10 -61 14 -82 51 -32 56
-31 108 2 123 14 7 36 12 48 12 30 0 127 51 127 67 0 20 -33 15 -81 -11 -24
-13 -61 -26 -82 -29 -34 -5 -38 -4 -32 11 24 61 35 107 44 181 12 96 5 110
-60 111 -30 0 -48 -10 -97 -52z m123 1 c10 -30 -3 -119 -26 -181 -10 -29 -19
-61 -19 -70 0 -13 -8 -18 -30 -18 -29 0 -30 1 -29 48 0 26 4 81 7 124 6 64 11
79 32 97 32 26 57 26 65 0z m-162 -296 c9 -6 -1 -106 -15 -143 -13 -34 -25
-40 -86 -40 -52 0 -93 17 -118 49 -16 20 1 112 23 125 36 22 165 27 196 9z"/>
</g>
</svg>
